<svg version="1.1" viewBox="0.0 0.0 157.09186351706037 158.0262467191601" fill="none" stroke="none" stroke-linecap="square" stroke-miterlimit="10" xmlns:xlink="http://www.w3.org/1999/xlink" xmlns="http://www.w3.org/2000/svg"><clipPath id="p.0"><path d="m0 0l157.09186 0l0 158.02625l-157.09186 0l0 -158.02625z" clip-rule="nonzero"/></clipPath><g clip-path="url(#p.0)"><path fill="#000000" fill-opacity="0.0" d="m0 0l157.09186 0l0 158.02625l-157.09186 0z" fill-rule="evenodd"/><path fill="#000000" fill-opacity="0.0" d="m7.4803147 79.480316l0 0c0 -39.764503 32.235497 -72.0 72.0 -72.0l0 0c19.095589 0 37.409065 7.585693 50.911682 21.088312c13.5026245 13.502621 21.088318 31.816101 21.088318 50.91169l0 0c0 39.764503 -32.235497 72.0 -72.0 72.0l0 0c-39.764503 0 -72.0 -32.235497 -72.0 -72.0z" fill-rule="evenodd"/><path stroke="#000000" stroke-width="8.0" stroke-linejoin="round" stroke-linecap="butt" d="m7.4803147 79.480316l0 0c0 -39.764503 32.235497 -72.0 72.0 -72.0l0 0c19.095589 0 37.409065 7.585693 50.911682 21.088312c13.5026245 13.502621 21.088318 31.816101 21.088318 50.91169l0 0c0 39.764503 -32.235497 72.0 -72.0 72.0l0 0c-39.764503 0 -72.0 -32.235497 -72.0 -72.0z" fill-rule="evenodd"/><path fill="#000000" fill-opacity="0.0" d="m130.392 28.568626l10.141739 -10.614172" fill-rule="evenodd"/><path stroke="#000000" stroke-width="12.0" stroke-linejoin="round" stroke-linecap="butt" d="m130.392 28.568626l10.141739 -10.614172" fill-rule="evenodd"/><path fill="#000000" fill-opacity="0.0" d="m129.05511 7.4803147l22.425201 22.425198" fill-rule="evenodd"/><path stroke="#000000" stroke-width="12.0" stroke-linejoin="round" stroke-linecap="butt" d="m129.05511 7.4803147l22.425201 22.425198" fill-rule="evenodd"/><path fill="#000000" fill-opacity="0.0" d="m35.855644 36.719162l42.992126 43.46456" fill-rule="evenodd"/><path stroke="#000000" stroke-width="4.0" stroke-linejoin="round" stroke-linecap="butt" d="m35.855644 36.719162l42.992126 43.46456" fill-rule="evenodd"/><path fill="#000000" fill-opacity="0.0" d="m78.84777 80.17585l60.28347 -17.291336" fill-rule="evenodd"/><path stroke="#000000" stroke-width="4.0" stroke-linejoin="round" stroke-linecap="butt" d="m78.84777 80.17585l60.28347 -17.291336" fill-rule="evenodd"/><path fill="#000000" d="m72.28346 79.480316l0 0c0 -3.9747086 3.222145 -7.1968536 7.1968536 -7.1968536l0 0c1.9087219 0 3.7392654 0.75823975 5.0889435 2.1079102c1.3496704 1.3496704 2.1079025 3.1802216 2.1079025 5.0889435l0 0c0 3.9747086 -3.2221375 7.196846 -7.196846 7.196846l0 0c-3.9747086 0 -7.1968536 -3.2221375 -7.1968536 -7.196846z" fill-rule="evenodd"/><path stroke="#000000" stroke-width="1.0" stroke-linejoin="round" stroke-linecap="butt" d="m72.28346 79.480316l0 0c0 -3.9747086 3.222145 -7.1968536 7.1968536 -7.1968536l0 0c1.9087219 0 3.7392654 0.75823975 5.0889435 2.1079102c1.3496704 1.3496704 2.1079025 3.1802216 2.1079025 5.0889435l0 0c0 3.9747086 -3.2221375 7.196846 -7.196846 7.196846l0 0c-3.9747086 0 -7.1968536 -3.2221375 -7.1968536 -7.196846z" fill-rule="evenodd"/></g></svg>
